<?xml version="1.0" standalone="no"?>
<!DOCTYPE svg PUBLIC "-//W3C//DTD SVG 20010904//EN"
 "http://www.w3.org/TR/2001/REC-SVG-20010904/DTD/svg10.dtd">
<svg version="1.0" xmlns="http://www.w3.org/2000/svg"
 width="512.000000pt" height="512.000000pt" viewBox="0 0 512.000000 512.000000"
 preserveAspectRatio="xMidYMid meet">

<g transform="translate(0.000000,512.000000) scale(0.100000,-0.100000)"
fill="white" stroke="none">
<path d="M1070 5113 c-68 -24 -100 -57 -405 -407 -177 -204 -340 -385 -363
-403 -22 -18 -49 -52 -61 -76 l-21 -43 0 -2010 c0 -1933 1 -2011 19 -2050 23
-50 80 -98 135 -113 30 -9 523 -11 1846 -9 1684 3 1807 4 1836 20 42 23 38 18
449 503 196 231 366 439 378 463 l21 42 -17 1949 c-10 1110 -22 1964 -27 1982
-17 59 -56 105 -111 133 l-53 26 -1805 -1 c-994 0 -1813 -3 -1821 -6z m3069
-453 c-8 -11 -66 -85 -129 -164 l-115 -145 -1478 -1 -1479 0 24 28 c12 15 77
89 142 165 l119 137 1465 0 c1457 0 1464 0 1451 -20z m301 -677 c0 -186 5
-720 10 -1188 5 -467 10 -1029 10 -1247 l1 -397 -138 -162 -138 -162 -3 1592
-2 1591 122 155 c68 84 126 154 131 154 4 1 7 -151 7 -336z m-2903 -200 c63
-29 126 -98 147 -160 33 -96 15 -211 -44 -285 l-30 -36 49 -45 c130 -116 398
-190 626 -172 184 14 385 86 484 173 l44 38 -35 52 c-66 94 -74 205 -23 308
30 62 69 98 143 131 179 83 394 -43 409 -240 10 -119 -40 -216 -141 -277 -40
-25 -69 -52 -91 -86 -226 -351 -865 -486 -1355 -287 -153 63 -302 178 -370
286 -24 38 -47 61 -71 73 -93 42 -163 154 -163 264 0 218 222 357 421 263z"/>
</g>
</svg>
